<svg xmlns="http://www.w3.org/2000/svg" viewBox="0 0 900 1400" role="img" aria-label="Stylized Cambodia heritage journey map">
  <defs>
    <linearGradient id="bg" x1="0" y1="0" x2="0" y2="1">
      <stop offset="0" stop-color="#163226"/>
      <stop offset=".46" stop-color="#0d1e17"/>
      <stop offset="1" stop-color="#050a08"/>
    </linearGradient>
    <radialGradient id="halo" cx="50%" cy="50%" r="50%">
      <stop offset="0" stop-color="#e9bd67" stop-opacity=".32"/>
      <stop offset="1" stop-color="#e9bd67" stop-opacity="0"/>
    </radialGradient>
    <pattern id="weave" width="36" height="36" patternUnits="userSpaceOnUse">
      <path d="M0 9H36M0 27H36M9 0V36M27 0V36" stroke="#d5a24d" stroke-opacity=".045" stroke-width="1.5"/>
      <path d="M0 18H36M18 0V36" stroke="#8a4934" stroke-opacity=".05"/>
    </pattern>
    <filter id="soft" x="-50%" y="-50%" width="200%" height="200%">
      <feGaussianBlur stdDeviation="14"/>
    </filter>
  </defs>

  <rect width="900" height="1400" fill="url(#bg)"/>
  <rect width="900" height="1400" fill="url(#weave)"/>

  <circle cx="690" cy="190" r="180" fill="url(#halo)"/>
  <circle cx="690" cy="190" r="48" fill="#e9bd67" opacity=".18"/>

  <path d="M0 350L110 292 205 330 302 270 405 340 530 265 635 323 745 260 900 330V545H0Z" fill="#264438" opacity=".55"/>
  <path d="M0 445L120 408 260 448 390 385 525 432 664 388 770 440 900 408V625H0Z" fill="#152b21" opacity=".82"/>

  <g opacity=".38" fill="#d6aa58">
    <path d="M102 420h140v54H102z"/>
    <path d="M120 398h104l-52-48z"/>
    <rect x="155" y="431" width="34" height="43" fill="#0b1712"/>
  </g>

  <g transform="translate(590 390)" fill="#ba965a" opacity=".34">
    <path d="M0 120V70h26V48h20V24h20V0l15 19 15-19v24h20v24h20v22h26v50Z"/>
    <rect x="62" y="82" width="38" height="38" fill="#0a1510"/>
  </g>

  <g transform="translate(180 770)" opacity=".42">
    <path d="M0 230V150h45v-35h38V72h34V40l24-40 24 40v32h34v43h38v35h45v80Z" fill="#a47e49"/>
    <path d="M108 230v-70h66v70Z" fill="#0a1510"/>
    <path d="M128 72l13-27 13 27Z" fill="#cf9f50"/>
  </g>

  <path d="M410 215C286 330 592 402 462 548S282 726 438 864s218 188 86 320" fill="none" stroke="#d9aa54" stroke-opacity=".12" stroke-width="16" stroke-linecap="round" filter="url(#soft)"/>
  <path d="M410 215C286 330 592 402 462 548S282 726 438 864s218 188 86 320" fill="none" stroke="#e7ba67" stroke-opacity=".42" stroke-width="3" stroke-linecap="round" stroke-dasharray="4 14"/>

  <g fill="#f0cb7f" opacity=".62">
    <circle cx="410" cy="215" r="6"/>
    <circle cx="462" cy="548" r="6"/>
    <circle cx="438" cy="864" r="6"/>
    <circle cx="524" cy="1184" r="6"/>
  </g>

  <g transform="translate(623 1010)" opacity=".38" fill="#e0b05a">
    <path d="M92 0c20 42 23 73 5 98 35-8 59 3 71 34-33 1-58 13-73 36-12-31-32-49-60-55 19-23 32-48 39-75 3-13 9-25 18-38Z"/>
    <path d="M73 72 23 49l27 52-47 20 61 10 12 59 18-49 54 26-31-49 43-31-55-1Z"/>
  </g>

  <g transform="translate(95 1080)" opacity=".32" fill="#c59552">
    <path d="M85 14c-28 13-45 35-48 65-2 25 10 46 35 63-9 25-5 49 13 73 13-26 33-42 59-49 1-32-10-56-33-73 12-22 10-48-6-79l-10 27Z"/>
    <circle cx="83" cy="68" r="8" fill="#0b1712"/>
  </g>

  <path d="M0 1220c120-45 234-12 336 11 110 25 218 5 316-18 86-20 166-14 248 8v179H0Z" fill="#07110d" opacity=".9"/>
  <path d="M0 1290c153-22 265 24 410 6 171-21 293-30 490-2v106H0Z" fill="#040706"/>
</svg>